# xmcd CD database file
#
# Track frame offsets:
#	150
#	18750
#	39525
#
# Disc length: 744 seconds
#
# Revision: 3
# Processed by: cddbd v1.5.2PL0 Copyright (c) Steve Scherf et al.
# Submitted via: CDex 1.60beta1-cs1
#
DISCID=1702e603
DTITLE=ポルノグラフィティ - あなたがここにいたら
DYEAR=2008
DGENRE=JPop
TTITLE0=あなたがここにいたら
TTITLE1=ホール
TTITLE2=オニオンスープ
EXTD=YEAR: 2008
EXTT0=
EXTT1=
EXTT2=
PLAYORDER=
